<mxfile host="app.diagrams.net" modified="2022-10-04T15:52:57.348Z" agent="5.0 (X11; Linux x86_64) AppleWebKit/537.36 (KHTML, like Gecko) Chrome/106.0.0.0 Safari/537.36" etag="oOsEgoBFveYnfmd3mJhX" version="20.4.0" type="github">
  <diagram id="JX267tmkFyanEfetOF3x" name="Page-1">
    <mxGraphModel dx="936" dy="582" grid="1" gridSize="10" guides="1" tooltips="1" connect="1" arrows="1" fold="1" page="1" pageScale="1" pageWidth="850" pageHeight="1100" math="0" shadow="0">
      <root>
        <mxCell id="0" />
        <mxCell id="1" parent="0" />
        <mxCell id="fUVvN42I4j-7IPn_Yf2B-1" value="&lt;font style=&quot;font-size: 18px;&quot;&gt;Client&lt;/font&gt;" style="image;html=1;image=img/lib/clip_art/computers/Laptop_128x128.png" parent="1" vertex="1">
          <mxGeometry x="410" y="940" width="80" height="80" as="geometry" />
        </mxCell>
        <mxCell id="fUVvN42I4j-7IPn_Yf2B-2" value="&lt;font style=&quot;font-size: 18px;&quot;&gt;DNS Server&lt;/font&gt;" style="image;html=1;image=img/lib/clip_art/computers/Server_128x128.png" parent="1" vertex="1">
          <mxGeometry x="10" y="680" width="80" height="80" as="geometry" />
        </mxCell>
        <mxCell id="OCpMYhBF6vP6gSi63RK3-75" style="edgeStyle=orthogonalEdgeStyle;rounded=0;orthogonalLoop=1;jettySize=auto;html=1;entryX=0.5;entryY=1;entryDx=0;entryDy=0;fontSize=18;" edge="1" parent="1" source="fUVvN42I4j-7IPn_Yf2B-3" target="fUVvN42I4j-7IPn_Yf2B-4">
          <mxGeometry relative="1" as="geometry" />
        </mxCell>
        <mxCell id="OCpMYhBF6vP6gSi63RK3-76" style="edgeStyle=orthogonalEdgeStyle;rounded=0;orthogonalLoop=1;jettySize=auto;html=1;fontSize=18;" edge="1" parent="1" source="fUVvN42I4j-7IPn_Yf2B-3" target="fUVvN42I4j-7IPn_Yf2B-10">
          <mxGeometry relative="1" as="geometry" />
        </mxCell>
        <mxCell id="OCpMYhBF6vP6gSi63RK3-78" style="edgeStyle=orthogonalEdgeStyle;rounded=0;orthogonalLoop=1;jettySize=auto;html=1;entryX=1.006;entryY=0.379;entryDx=0;entryDy=0;entryPerimeter=0;fontSize=18;" edge="1" parent="1" source="fUVvN42I4j-7IPn_Yf2B-3" target="fUVvN42I4j-7IPn_Yf2B-10">
          <mxGeometry relative="1" as="geometry" />
        </mxCell>
        <mxCell id="fUVvN42I4j-7IPn_Yf2B-3" value="&lt;font style=&quot;font-size: 18px;&quot;&gt;Firewall&lt;/font&gt;" style="image;html=1;image=img/lib/clip_art/networking/Firewall-page1_128x128.png" parent="1" vertex="1">
          <mxGeometry x="460" y="860" width="80" height="80" as="geometry" />
        </mxCell>
        <mxCell id="OCpMYhBF6vP6gSi63RK3-74" style="edgeStyle=orthogonalEdgeStyle;rounded=0;orthogonalLoop=1;jettySize=auto;html=1;entryX=0;entryY=0.75;entryDx=0;entryDy=0;fontSize=18;" edge="1" parent="1" source="fUVvN42I4j-7IPn_Yf2B-4" target="fUVvN42I4j-7IPn_Yf2B-3">
          <mxGeometry relative="1" as="geometry" />
        </mxCell>
        <mxCell id="fUVvN42I4j-7IPn_Yf2B-4" value="&lt;font style=&quot;font-size: 18px;&quot;&gt;Firewall&lt;/font&gt;" style="image;html=1;image=img/lib/clip_art/networking/Firewall-page1_128x128.png" parent="1" vertex="1">
          <mxGeometry x="90" y="690" width="80" height="80" as="geometry" />
        </mxCell>
        <mxCell id="OCpMYhBF6vP6gSi63RK3-23" style="edgeStyle=orthogonalEdgeStyle;rounded=0;orthogonalLoop=1;jettySize=auto;html=1;fontSize=18;" edge="1" parent="1" source="fUVvN42I4j-7IPn_Yf2B-12" target="OCpMYhBF6vP6gSi63RK3-8">
          <mxGeometry relative="1" as="geometry" />
        </mxCell>
        <mxCell id="OCpMYhBF6vP6gSi63RK3-35" style="edgeStyle=orthogonalEdgeStyle;rounded=0;orthogonalLoop=1;jettySize=auto;html=1;fontSize=18;" edge="1" parent="1" source="fUVvN42I4j-7IPn_Yf2B-12" target="OCpMYhBF6vP6gSi63RK3-7">
          <mxGeometry relative="1" as="geometry" />
        </mxCell>
        <mxCell id="fUVvN42I4j-7IPn_Yf2B-12" value="&lt;font style=&quot;font-size: 18px;&quot;&gt;Web Servers&lt;/font&gt;" style="aspect=fixed;perimeter=ellipsePerimeter;html=1;align=center;shadow=0;dashed=0;spacingTop=3;image;image=img/lib/active_directory/server_farm.svg;" parent="1" vertex="1">
          <mxGeometry x="680" y="375" width="90" height="90" as="geometry" />
        </mxCell>
        <mxCell id="fUVvN42I4j-7IPn_Yf2B-13" value="&lt;font style=&quot;font-size: 18px;&quot;&gt;Load Balancers&lt;/font&gt;" style="aspect=fixed;perimeter=ellipsePerimeter;html=1;align=center;shadow=0;dashed=0;spacingTop=3;image;image=img/lib/active_directory/server_farm.svg;" parent="1" vertex="1">
          <mxGeometry x="340" y="550" width="100" height="100" as="geometry" />
        </mxCell>
        <mxCell id="OCpMYhBF6vP6gSi63RK3-30" style="edgeStyle=orthogonalEdgeStyle;rounded=0;orthogonalLoop=1;jettySize=auto;html=1;fontSize=18;" edge="1" parent="1" source="fUVvN42I4j-7IPn_Yf2B-14" target="OCpMYhBF6vP6gSi63RK3-9">
          <mxGeometry relative="1" as="geometry" />
        </mxCell>
        <mxCell id="fUVvN42I4j-7IPn_Yf2B-14" value="&lt;font style=&quot;font-size: 18px;&quot;&gt;Database Servers&lt;/font&gt;" style="aspect=fixed;perimeter=ellipsePerimeter;html=1;align=center;shadow=0;dashed=0;spacingTop=3;image;image=img/lib/active_directory/database_server.svg;" parent="1" vertex="1">
          <mxGeometry x="460" y="10" width="80" height="97.56" as="geometry" />
        </mxCell>
        <mxCell id="OCpMYhBF6vP6gSi63RK3-34" style="edgeStyle=orthogonalEdgeStyle;rounded=0;orthogonalLoop=1;jettySize=auto;html=1;fontSize=18;" edge="1" parent="1" source="OCpMYhBF6vP6gSi63RK3-5" target="OCpMYhBF6vP6gSi63RK3-8">
          <mxGeometry relative="1" as="geometry" />
        </mxCell>
        <mxCell id="OCpMYhBF6vP6gSi63RK3-5" value="&lt;font style=&quot;font-size: 18px;&quot;&gt;Application Server&lt;/font&gt;" style="aspect=fixed;perimeter=ellipsePerimeter;html=1;align=center;shadow=0;dashed=0;spacingTop=3;image;image=img/lib/active_directory/server_farm.svg;" vertex="1" parent="1">
          <mxGeometry x="427.5" y="180" width="125" height="125" as="geometry" />
        </mxCell>
        <mxCell id="OCpMYhBF6vP6gSi63RK3-61" style="edgeStyle=orthogonalEdgeStyle;rounded=0;orthogonalLoop=1;jettySize=auto;html=1;fontSize=18;" edge="1" parent="1" source="OCpMYhBF6vP6gSi63RK3-7">
          <mxGeometry relative="1" as="geometry">
            <mxPoint x="670" y="420" as="targetPoint" />
          </mxGeometry>
        </mxCell>
        <mxCell id="OCpMYhBF6vP6gSi63RK3-7" value="&lt;font style=&quot;font-size: 18px;&quot;&gt;Firewall&lt;/font&gt;" style="image;html=1;image=img/lib/clip_art/networking/Firewall-page1_128x128.png" vertex="1" parent="1">
          <mxGeometry x="560" y="380" width="80" height="80" as="geometry" />
        </mxCell>
        <mxCell id="OCpMYhBF6vP6gSi63RK3-43" style="edgeStyle=orthogonalEdgeStyle;rounded=0;orthogonalLoop=1;jettySize=auto;html=1;fontSize=18;" edge="1" parent="1" source="OCpMYhBF6vP6gSi63RK3-8" target="OCpMYhBF6vP6gSi63RK3-9">
          <mxGeometry relative="1" as="geometry" />
        </mxCell>
        <mxCell id="OCpMYhBF6vP6gSi63RK3-52" style="edgeStyle=orthogonalEdgeStyle;rounded=0;orthogonalLoop=1;jettySize=auto;html=1;entryX=1;entryY=0.5;entryDx=0;entryDy=0;fontSize=18;" edge="1" parent="1" source="OCpMYhBF6vP6gSi63RK3-8" target="fUVvN42I4j-7IPn_Yf2B-12">
          <mxGeometry relative="1" as="geometry" />
        </mxCell>
        <mxCell id="OCpMYhBF6vP6gSi63RK3-65" style="edgeStyle=orthogonalEdgeStyle;rounded=0;orthogonalLoop=1;jettySize=auto;html=1;fontSize=18;" edge="1" parent="1" source="OCpMYhBF6vP6gSi63RK3-8">
          <mxGeometry relative="1" as="geometry">
            <mxPoint x="560" y="242.4999999999999" as="targetPoint" />
          </mxGeometry>
        </mxCell>
        <mxCell id="OCpMYhBF6vP6gSi63RK3-8" value="&lt;font style=&quot;font-size: 18px;&quot;&gt;Firewall&lt;/font&gt;" style="image;html=1;image=img/lib/clip_art/networking/Firewall-page1_128x128.png" vertex="1" parent="1">
          <mxGeometry x="630" y="202.5" width="80" height="80" as="geometry" />
        </mxCell>
        <mxCell id="OCpMYhBF6vP6gSi63RK3-44" style="edgeStyle=orthogonalEdgeStyle;rounded=0;orthogonalLoop=1;jettySize=auto;html=1;entryX=1.006;entryY=0.354;entryDx=0;entryDy=0;entryPerimeter=0;fontSize=18;" edge="1" parent="1" source="OCpMYhBF6vP6gSi63RK3-9" target="OCpMYhBF6vP6gSi63RK3-8">
          <mxGeometry relative="1" as="geometry" />
        </mxCell>
        <mxCell id="OCpMYhBF6vP6gSi63RK3-64" style="edgeStyle=orthogonalEdgeStyle;rounded=0;orthogonalLoop=1;jettySize=auto;html=1;fontSize=18;" edge="1" parent="1" source="OCpMYhBF6vP6gSi63RK3-9" target="fUVvN42I4j-7IPn_Yf2B-14">
          <mxGeometry relative="1" as="geometry" />
        </mxCell>
        <mxCell id="OCpMYhBF6vP6gSi63RK3-9" value="&lt;font style=&quot;font-size: 18px;&quot;&gt;Firewall&lt;/font&gt;" style="image;html=1;image=img/lib/clip_art/networking/Firewall-page1_128x128.png" vertex="1" parent="1">
          <mxGeometry x="600" y="18.78" width="80" height="80" as="geometry" />
        </mxCell>
        <mxCell id="fUVvN42I4j-7IPn_Yf2B-10" value="&lt;font style=&quot;font-size: 18px;&quot;&gt;Firewall&lt;/font&gt;" style="image;html=1;image=img/lib/clip_art/networking/Firewall-page1_128x128.png" parent="1" vertex="1">
          <mxGeometry x="460" y="590" width="80" height="80" as="geometry" />
        </mxCell>
      </root>
    </mxGraphModel>
  </diagram>
</mxfile>
